<?xml version="1.0" encoding="UTF-8"?>
<svg width="222px" height="48px" viewBox="0 0 222 48" version="1.1" xmlns="http://www.w3.org/2000/svg" xmlns:xlink="http://www.w3.org/1999/xlink">
    <title>编组 3</title>
    <defs>
        <path d="M36.25,6.40625 L34.6875,6.40625 L31.71875,19.53125 L36.09375,37.34375 L30.3125,37.34375 L27.1875,24.84375 L24.0625,37.34375 L18.4375,37.34375 L22.8125,19.53125 L20.9375,11.25 L18.125,11.25 L20.3125,1.25 L25.78125,1.25 L25.15625,3.59375 L36.25,3.59375 L36.25,6.40625 Z M0,22.34375 L0,19.53125 L3.75,19.53125 L4.0625,18.4375 L9.6875,18.4375 L9.21875,19.53125 L18.90625,19.53125 L14.6875,27.34375 L17.96875,37.1875 L12.03125,37.1875 L10,31.40625 L6.40625,37.1875 L0.15625,37.1875 L5.3125,28.59375 L0.9375,28.59375 L2.8125,22.34375 L0,22.34375 Z M0,9.6875 L0,6.875 L1.25,6.875 L0.3125,2.1875 L4.84375,2.1875 L5.78125,6.875 L6.25,6.875 L6.25,1.40625 L12.1875,0.78125 L12.1875,6.875 L12.5,6.875 L13.59375,2.1875 L17.96875,2.1875 L17.03125,6.875 L18.125,6.875 L18.125,9.6875 L12.1875,9.6875 L12.1875,17.8125 L6.25,17.8125 L6.25,9.6875 L0,9.6875 Z M12.34375,10.46875 L16.875,10.46875 L18.28125,17.8125 L13.90625,17.8125 L12.34375,10.46875 Z M4.375,17.8125 L0,17.8125 L1.5625,10.46875 L5.9375,10.46875 L4.375,17.8125 Z M27.1875,15 L29.21875,6.40625 L25.15625,6.40625 L27.1875,15 Z M8.4375,22.34375 L6.875,27.1875 L9.0625,27.1875 L11.71875,22.34375 L8.4375,22.34375 Z" id="path-1"></path>
        <path d="M56.71875,37.34375 L51.25,37.34375 L52.65625,1.5625 L75.46875,1.5625 L75.46875,10.9375 L57.65625,10.9375 L56.71875,37.34375 Z M64.375,21.71875 L64.375,17.03125 L58.125,17.03125 L58.125,14.21875 L64.375,14.21875 L64.375,12.65625 L69.6875,11.875 L69.6875,14.21875 L75.9375,14.21875 L75.9375,17.03125 L69.6875,17.03125 L69.6875,21.71875 L75.3125,21.71875 L75.3125,37.34375 L58.4375,37.34375 L58.4375,21.71875 L64.375,21.71875 Z M43.125,33.4375 L43.125,25 L39.53125,25.9375 L39.53125,22.65625 L43.125,21.71875 L43.125,9.0625 L39.53125,9.0625 L39.53125,6.40625 L43.125,6.40625 L43.125,1.5625 L49.0625,0.625 L49.0625,6.40625 L51.5625,6.40625 L51.5625,9.0625 L49.0625,9.0625 L49.0625,20.15625 L51.25,19.53125 L51.25,22.8125 L49.0625,23.4375 L49.0625,37.34375 L41.09375,37.34375 L43.125,33.4375 Z M69.6875,24.53125 L64.375,24.53125 L64.375,34.53125 L69.6875,34.53125 L69.6875,24.53125 Z M57.96875,4.375 L57.8125,8.125 L70.46875,8.125 L70.46875,4.375 L57.96875,4.375 Z" id="path-2"></path>
        <path d="M79.6875,34.6875 L94.21875,34.6875 L94.21875,20.9375 L80.9375,20.9375 L80.9375,17.96875 L114.53125,17.96875 L114.53125,20.9375 L101.25,20.9375 L101.25,34.6875 L115.9375,34.6875 L115.9375,37.65625 L79.6875,37.65625 L79.6875,34.6875 Z M79.6875,3.28125 L115.9375,3.28125 L115.9375,10.625 L109.53125,10.625 L109.53125,5.78125 L85.9375,5.78125 L85.9375,10.625 L79.6875,10.625 L79.6875,3.28125 Z M88.90625,16.09375 L81.5625,16.09375 L88.75,8.125 L96.09375,8.125 L88.90625,16.09375 Z M99.375,8.125 L106.875,8.125 L114.0625,16.09375 L106.71875,16.09375 L99.375,8.125 Z M93.59375,2.8125 L99.84375,0 L99.84375,2.8125 L93.59375,2.8125 Z" id="path-3"></path>
        <path d="M147.03125,33.59375 L129.6875,33.59375 L129.6875,7.34375 L147.03125,7.34375 L147.03125,33.59375 Z M147.8125,37.34375 L149.375,33.59375 L149.375,4.6875 L129.21875,4.6875 L129.21875,2.03125 L155.625,2.03125 L155.625,37.34375 L147.8125,37.34375 Z M120.9375,37.34375 L120.9375,6.875 L127.34375,6.875 L127.34375,37.34375 L120.9375,37.34375 Z M135.625,31.25 L141.09375,31.25 L141.09375,20.46875 L135.625,20.46875 L135.625,31.25 Z M135.625,9.53125 L135.625,18.125 L141.09375,18.125 L141.09375,9.53125 L135.625,9.53125 Z M120.9375,4.6875 L127.1875,1.40625 L127.1875,4.6875 L120.9375,4.6875 Z" id="path-4"></path>
    </defs>
    <g id="2023年02月" stroke="none" stroke-width="1" fill="none" fill-rule="evenodd">
        <g id="1-0.登录页" transform="translate(-391.000000, -360.000000)" fill-rule="nonzero">
            <g id="编组-11" transform="translate(294.000000, 172.000000)">
                <g id="编组-3" transform="translate(97.000000, 188.000000)">
                    <g id="BFF服务" transform="translate(66.031250, 3.406250)">
                        <g id="形状">
                            <use fill="#C3C6CB" xlink:href="#path-1"></use>
                            <use fill="#FFFFFF" xlink:href="#path-1"></use>
                        </g>
                        <g id="形状">
                            <use fill="#C3C6CB" xlink:href="#path-2"></use>
                            <use fill="#FFFFFF" xlink:href="#path-2"></use>
                        </g>
                        <g id="形状">
                            <use fill="#C3C6CB" xlink:href="#path-3"></use>
                            <use fill="#FFFFFF" xlink:href="#path-3"></use>
                        </g>
                        <g id="形状">
                            <use fill="#C3C6CB" xlink:href="#path-4"></use>
                            <use fill="#FFFFFF" xlink:href="#path-4"></use>
                        </g>
                    </g>
                    <g id="编组" fill="#FFFFFF">
                        <polygon id="路径" opacity="0.2" points="8.46153846 32.5714286 22 39.4285714 35.5384615 32.5714286 35.5384615 15.4285714 22 8.57142857 8.46153846 15.4285714"></polygon>
                        <path d="M22.6769231,48 L21.3230769,48 L1.01538462,38.0571429 L0,36.3428571 L0,11.6571429 L1.01538462,9.94285714 L21.3230769,0 L22.6769231,0 L42.9846154,9.94285714 L44,11.6571429 L44,36.3428571 L42.9846154,38.0571429 L22.6769231,48 Z M23.6923077,22.6285714 L23.6923077,43.5428571 L40.6153846,35.3142857 L40.6153846,14.4 L23.6923077,22.6285714 Z M3.38461538,35.3142857 L20.3076923,43.5428571 L20.3076923,22.6285714 L3.38461538,14.4 L3.38461538,35.3142857 L3.38461538,35.3142857 Z M5.75384615,11.6571429 L22,19.5428571 L38.2461538,11.6571429 L22,3.77142857 L5.75384615,11.6571429 Z" id="形状"></path>
                    </g>
                </g>
            </g>
        </g>
    </g>
</svg>