<?xml version="1.0" encoding="UTF-8"?>
<svg width="217px" height="48px" viewBox="0 0 217 48" version="1.1" xmlns="http://www.w3.org/2000/svg" xmlns:xlink="http://www.w3.org/1999/xlink">
    <title>编组 35</title>
    <g id="2023年03月" stroke="none" stroke-width="1" fill="none" fill-rule="evenodd">
        <g id="编组-35" fill="#FFFFFF" fill-rule="nonzero">
            <g id="编组备份">
                <polygon id="路径" opacity="0.2" points="8.46153846 32.5714286 22 39.4285714 35.5384615 32.5714286 35.5384615 15.4285714 22 8.57142857 8.46153846 15.4285714"></polygon>
                <path d="M22.6769231,48 L21.3230769,48 L1.01538462,38.0571429 L0,36.3428571 L0,11.6571429 L1.01538462,9.94285714 L21.3230769,0 L22.6769231,0 L42.9846154,9.94285714 L44,11.6571429 L44,36.3428571 L42.9846154,38.0571429 L22.6769231,48 Z M23.6923077,22.6285714 L23.6923077,43.5428571 L40.6153846,35.3142857 L40.6153846,14.4 L23.6923077,22.6285714 Z M3.38461538,35.3142857 L20.3076923,43.5428571 L20.3076923,22.6285714 L3.38461538,14.4 L3.38461538,35.3142857 L3.38461538,35.3142857 Z M5.75384615,11.6571429 L22,19.5428571 L38.2461538,11.6571429 L22,3.77142857 L5.75384615,11.6571429 Z" id="形状"></path>
            </g>
            <g id="BFF服务备份" transform="translate(69.656250, 4.500000)">
                <path d="M11.5625,20.46875 L5.46875,20.46875 L5.46875,29.6875 L12.03125,29.6875 C15.46875,29.5833333 17.2395833,28.0729167 17.34375,25.15625 C17.2395833,22.1354167 15.3125,20.5729167 11.5625,20.46875 Z M5.46875,7.34375 L5.46875,15.15625 L11.25,15.15625 C14.375,15.0520833 15.9895833,13.6458333 16.09375,10.9375 C15.8854167,8.64583333 14.2708333,7.44791667 11.25,7.34375 L5.46875,7.34375 Z M12.8125,34.53125 L0,34.53125 L0,2.1875 L12.03125,2.1875 C18.0729167,2.5 21.25,5.36458333 21.5625,10.78125 C21.5625,13.6979167 20.5208333,15.8854167 18.4375,17.34375 C21.25,19.1145833 22.7083333,21.71875 22.8125,25.15625 C22.8125,31.40625 19.4791667,34.53125 12.8125,34.53125 Z" id="形状"></path>
                <polygon id="路径" points="44.6875 7.34375 32.1875 7.34375 32.1875 15.15625 42.65625 15.15625 42.65625 20.3125 32.1875 20.3125 32.1875 34.53125 26.71875 34.53125 26.71875 2.1875 44.6875 2.1875"></polygon>
                <polygon id="路径" points="66.875 7.34375 54.375 7.34375 54.375 15.15625 64.84375 15.15625 64.84375 20.3125 54.375 20.3125 54.375 34.53125 48.90625 34.53125 48.90625 2.1875 66.875 2.1875"></polygon>
                <path d="M105.78125,10.46875 L101.875,22.8125 L106.40625,36.25 L100.9375,36.25 L98.4375,29.375 L95.9375,36.25 L85.3125,36.25 L85.3125,0.46875 L105.46875,0.46875 L105.46875,9.53125 L98.125,9.53125 L99.53125,6.875 L99.53125,2.96875 L91.09375,2.96875 L91.09375,10.46875 L105.78125,10.46875 Z M83.90625,0.46875 L83.90625,36.25 L77.1875,36.25 L78.4375,33.125 L78.4375,23.125 L76.09375,23.125 L75.46875,36.25 L69.6875,36.25 L71.40625,0.46875 L83.90625,0.46875 Z M95,22.8125 L91.09375,10.46875 L91.09375,34.53125 L95,22.8125 Z M78.4375,20.46875 L78.4375,12.1875 L76.5625,12.1875 L76.25,20.46875 L78.4375,20.46875 Z M78.4375,9.53125 L78.4375,3.125 L77.03125,3.125 L76.71875,9.53125 L78.4375,9.53125 Z M98.4375,17.65625 L99.84375,12.96875 L96.875,12.96875 L98.4375,17.65625 Z" id="形状"></path>
                <path d="M119.21875,15.46875 L110.15625,15.46875 L121.09375,7.96875 L118.28125,5.9375 L116.875,8.59375 L110.625,8.59375 L115,0 L121.25,0 L120.625,1.5625 L144.6875,1.5625 L135.46875,7.96875 L146.5625,15.46875 L136.875,15.46875 L128.125,9.53125 L119.21875,15.46875 Z M136.71875,36.25 L138.28125,32.5 L138.28125,20.3125 L123.59375,20.3125 L117.96875,36.25 L111.25,36.25 L116.875,20.3125 L111.25,20.3125 L111.25,17.65625 L117.8125,17.65625 L118.4375,15.625 L125.15625,15.625 L124.375,17.65625 L144.6875,17.65625 L144.6875,36.25 L136.71875,36.25 Z M132.65625,3.59375 L124.0625,3.59375 L128.28125,6.5625 L132.65625,3.59375 Z" id="形状"></path>
            </g>
        </g>
    </g>
</svg>