<?xml version="1.0" encoding="UTF-8"?>
<svg width="105px" height="24px" viewBox="0 0 105 24" version="1.1" xmlns="http://www.w3.org/2000/svg" xmlns:xlink="http://www.w3.org/1999/xlink">
    <title>编组 2备份</title>
    <defs>
        <path d="M5.78125,10.234375 L2.734375,10.234375 L2.734375,14.84375 L6.015625,14.84375 C7.734375,14.7916667 8.61979167,14.0364583 8.671875,12.578125 C8.61979167,11.0677083 7.65625,10.2864583 5.78125,10.234375 Z M2.734375,3.671875 L2.734375,7.578125 L5.625,7.578125 C7.1875,7.52604167 7.99479167,6.82291667 8.046875,5.46875 C7.94270833,4.32291667 7.13541667,3.72395833 5.625,3.671875 L2.734375,3.671875 Z M6.40625,17.265625 L0,17.265625 L0,1.09375 L6.015625,1.09375 C9.03645833,1.25 10.625,2.68229167 10.78125,5.390625 C10.78125,6.84895833 10.2604167,7.94270833 9.21875,8.671875 C10.625,9.55729167 11.3541667,10.859375 11.40625,12.578125 C11.40625,15.703125 9.73958333,17.265625 6.40625,17.265625 Z" id="path-1"></path>
        <polygon id="path-2" points="22.34375 3.671875 16.09375 3.671875 16.09375 7.578125 21.328125 7.578125 21.328125 10.15625 16.09375 10.15625 16.09375 17.265625 13.359375 17.265625 13.359375 1.09375 22.34375 1.09375"></polygon>
        <polygon id="path-3" points="33.4375 3.671875 27.1875 3.671875 27.1875 7.578125 32.421875 7.578125 32.421875 10.15625 27.1875 10.15625 27.1875 17.265625 24.453125 17.265625 24.453125 1.09375 33.4375 1.09375"></polygon>
        <path d="M52.890625,5.234375 L50.9375,11.40625 L53.203125,18.125 L50.46875,18.125 L49.21875,14.6875 L47.96875,18.125 L42.65625,18.125 L42.65625,0.234375 L52.734375,0.234375 L52.734375,4.765625 L49.0625,4.765625 L49.765625,3.4375 L49.765625,1.484375 L45.546875,1.484375 L45.546875,5.234375 L52.890625,5.234375 Z M41.953125,0.234375 L41.953125,18.125 L38.59375,18.125 L39.21875,16.5625 L39.21875,11.5625 L38.046875,11.5625 L37.734375,18.125 L34.84375,18.125 L35.703125,0.234375 L41.953125,0.234375 Z M47.5,11.40625 L45.546875,5.234375 L45.546875,17.265625 L47.5,11.40625 Z M39.21875,10.234375 L39.21875,6.09375 L38.28125,6.09375 L38.125,10.234375 L39.21875,10.234375 Z M39.21875,4.765625 L39.21875,1.5625 L38.515625,1.5625 L38.359375,4.765625 L39.21875,4.765625 Z M49.21875,8.828125 L49.921875,6.484375 L48.4375,6.484375 L49.21875,8.828125 Z" id="path-4"></path>
        <path d="M59.609375,7.734375 L55.078125,7.734375 L60.546875,3.984375 L59.140625,2.96875 L58.4375,4.296875 L55.3125,4.296875 L57.5,0 L60.625,0 L60.3125,0.78125 L72.34375,0.78125 L67.734375,3.984375 L73.28125,7.734375 L68.4375,7.734375 L64.0625,4.765625 L59.609375,7.734375 Z M68.359375,18.125 L69.140625,16.25 L69.140625,10.15625 L61.796875,10.15625 L58.984375,18.125 L55.625,18.125 L58.4375,10.15625 L55.625,10.15625 L55.625,8.828125 L58.90625,8.828125 L59.21875,7.8125 L62.578125,7.8125 L62.1875,8.828125 L72.34375,8.828125 L72.34375,18.125 L68.359375,18.125 Z M66.328125,1.796875 L62.03125,1.796875 L64.140625,3.28125 L66.328125,1.796875 Z" id="path-5"></path>
    </defs>
    <g id="2023年03月" stroke="none" stroke-width="1" fill="none" fill-rule="evenodd">
        <g id="编组-2备份" fill-rule="nonzero">
            <g id="BFF服务" transform="translate(31.328125, 2.750000)">
                <g id="形状">
                    <use fill="#C3C6CB" xlink:href="#path-1"></use>
                    <use fill="#2061FF" xlink:href="#path-1"></use>
                </g>
                <g id="路径">
                    <use fill="#C3C6CB" xlink:href="#path-2"></use>
                    <use fill="#2061FF" xlink:href="#path-2"></use>
                </g>
                <g id="路径">
                    <use fill="#C3C6CB" xlink:href="#path-3"></use>
                    <use fill="#2061FF" xlink:href="#path-3"></use>
                </g>
                <g id="形状">
                    <use fill="#C3C6CB" xlink:href="#path-4"></use>
                    <use fill="#2061FF" xlink:href="#path-4"></use>
                </g>
                <g id="形状">
                    <use fill="#C3C6CB" xlink:href="#path-5"></use>
                    <use fill="#2061FF" xlink:href="#path-5"></use>
                </g>
            </g>
            <g id="编组" fill="#2061FF">
                <polygon id="路径" opacity="0.2" points="4.23076923 16.2857143 11 19.7142857 17.7692308 16.2857143 17.7692308 7.71428571 11 4.28571429 4.23076923 7.71428571"></polygon>
                <path d="M11.3384615,24 L10.6615385,24 L0.507692308,19.0285714 L0,18.1714286 L0,5.82857143 L0.507692308,4.97142857 L10.6615385,0 L11.3384615,0 L21.4923077,4.97142857 L22,5.82857143 L22,18.1714286 L21.4923077,19.0285714 L11.3384615,24 Z M11.8461538,11.3142857 L11.8461538,21.7714286 L20.3076923,17.6571429 L20.3076923,7.2 L11.8461538,11.3142857 Z M1.69230769,17.6571429 L10.1538462,21.7714286 L10.1538462,11.3142857 L1.69230769,7.2 L1.69230769,17.6571429 L1.69230769,17.6571429 Z M2.87692308,5.82857143 L11,9.77142857 L19.1230769,5.82857143 L11,1.88571429 L2.87692308,5.82857143 Z" id="形状"></path>
            </g>
        </g>
    </g>
</svg>