<?xml version="1.0" encoding="UTF-8"?>
<svg width="109px" height="24px" viewBox="0 0 109 24" version="1.1" xmlns="http://www.w3.org/2000/svg" xmlns:xlink="http://www.w3.org/1999/xlink">
    <title>编组 2备份</title>
    <defs>
        <path d="M18.125,3.203125 L17.34375,3.203125 L15.859375,9.765625 L18.046875,18.671875 L15.15625,18.671875 L13.59375,12.421875 L12.03125,18.671875 L9.21875,18.671875 L11.40625,9.765625 L10.46875,5.625 L9.0625,5.625 L10.15625,0.625 L12.890625,0.625 L12.578125,1.796875 L18.125,1.796875 L18.125,3.203125 Z M0,11.171875 L0,9.765625 L1.875,9.765625 L2.03125,9.21875 L4.84375,9.21875 L4.609375,9.765625 L9.453125,9.765625 L7.34375,13.671875 L8.984375,18.59375 L6.015625,18.59375 L5,15.703125 L3.203125,18.59375 L0.078125,18.59375 L2.65625,14.296875 L0.46875,14.296875 L1.40625,11.171875 L0,11.171875 Z M0,4.84375 L0,3.4375 L0.625,3.4375 L0.15625,1.09375 L2.421875,1.09375 L2.890625,3.4375 L3.125,3.4375 L3.125,0.703125 L6.09375,0.390625 L6.09375,3.4375 L6.25,3.4375 L6.796875,1.09375 L8.984375,1.09375 L8.515625,3.4375 L9.0625,3.4375 L9.0625,4.84375 L6.09375,4.84375 L6.09375,8.90625 L3.125,8.90625 L3.125,4.84375 L0,4.84375 Z M6.171875,5.234375 L8.4375,5.234375 L9.140625,8.90625 L6.953125,8.90625 L6.171875,5.234375 Z M2.1875,8.90625 L0,8.90625 L0.78125,5.234375 L2.96875,5.234375 L2.1875,8.90625 Z M13.59375,7.5 L14.609375,3.203125 L12.578125,3.203125 L13.59375,7.5 Z M4.21875,11.171875 L3.4375,13.59375 L4.53125,13.59375 L5.859375,11.171875 L4.21875,11.171875 Z" id="path-1"></path>
        <path d="M28.359375,18.671875 L25.625,18.671875 L26.328125,0.78125 L37.734375,0.78125 L37.734375,5.46875 L28.828125,5.46875 L28.359375,18.671875 Z M32.1875,10.859375 L32.1875,8.515625 L29.0625,8.515625 L29.0625,7.109375 L32.1875,7.109375 L32.1875,6.328125 L34.84375,5.9375 L34.84375,7.109375 L37.96875,7.109375 L37.96875,8.515625 L34.84375,8.515625 L34.84375,10.859375 L37.65625,10.859375 L37.65625,18.671875 L29.21875,18.671875 L29.21875,10.859375 L32.1875,10.859375 Z M21.5625,16.71875 L21.5625,12.5 L19.765625,12.96875 L19.765625,11.328125 L21.5625,10.859375 L21.5625,4.53125 L19.765625,4.53125 L19.765625,3.203125 L21.5625,3.203125 L21.5625,0.78125 L24.53125,0.3125 L24.53125,3.203125 L25.78125,3.203125 L25.78125,4.53125 L24.53125,4.53125 L24.53125,10.078125 L25.625,9.765625 L25.625,11.40625 L24.53125,11.71875 L24.53125,18.671875 L20.546875,18.671875 L21.5625,16.71875 Z M34.84375,12.265625 L32.1875,12.265625 L32.1875,17.265625 L34.84375,17.265625 L34.84375,12.265625 Z M28.984375,2.1875 L28.90625,4.0625 L35.234375,4.0625 L35.234375,2.1875 L28.984375,2.1875 Z" id="path-2"></path>
        <path d="M39.84375,17.34375 L47.109375,17.34375 L47.109375,10.46875 L40.46875,10.46875 L40.46875,8.984375 L57.265625,8.984375 L57.265625,10.46875 L50.625,10.46875 L50.625,17.34375 L57.96875,17.34375 L57.96875,18.828125 L39.84375,18.828125 L39.84375,17.34375 Z M39.84375,1.640625 L57.96875,1.640625 L57.96875,5.3125 L54.765625,5.3125 L54.765625,2.890625 L42.96875,2.890625 L42.96875,5.3125 L39.84375,5.3125 L39.84375,1.640625 Z M44.453125,8.046875 L40.78125,8.046875 L44.375,4.0625 L48.046875,4.0625 L44.453125,8.046875 Z M49.6875,4.0625 L53.4375,4.0625 L57.03125,8.046875 L53.359375,8.046875 L49.6875,4.0625 Z M46.796875,1.40625 L49.921875,0 L49.921875,1.40625 L46.796875,1.40625 Z" id="path-3"></path>
        <path d="M73.515625,16.796875 L64.84375,16.796875 L64.84375,3.671875 L73.515625,3.671875 L73.515625,16.796875 Z M73.90625,18.671875 L74.6875,16.796875 L74.6875,2.34375 L64.609375,2.34375 L64.609375,1.015625 L77.8125,1.015625 L77.8125,18.671875 L73.90625,18.671875 Z M60.46875,18.671875 L60.46875,3.4375 L63.671875,3.4375 L63.671875,18.671875 L60.46875,18.671875 Z M67.8125,15.625 L70.546875,15.625 L70.546875,10.234375 L67.8125,10.234375 L67.8125,15.625 Z M67.8125,4.765625 L67.8125,9.0625 L70.546875,9.0625 L70.546875,4.765625 L67.8125,4.765625 Z M60.46875,2.34375 L63.59375,0.703125 L63.59375,2.34375 L60.46875,2.34375 Z" id="path-4"></path>
    </defs>
    <g id="2023年02月" stroke="none" stroke-width="1" fill="none" fill-rule="evenodd">
        <g id="编组-2备份" fill-rule="nonzero">
            <g id="BFF服务" transform="translate(31.015625, 2.203125)">
                <g id="形状">
                    <use fill="#C3C6CB" xlink:href="#path-1"></use>
                    <use fill="#2061FF" xlink:href="#path-1"></use>
                </g>
                <g id="形状">
                    <use fill="#C3C6CB" xlink:href="#path-2"></use>
                    <use fill="#2061FF" xlink:href="#path-2"></use>
                </g>
                <g id="形状">
                    <use fill="#C3C6CB" xlink:href="#path-3"></use>
                    <use fill="#2061FF" xlink:href="#path-3"></use>
                </g>
                <g id="形状">
                    <use fill="#C3C6CB" xlink:href="#path-4"></use>
                    <use fill="#2061FF" xlink:href="#path-4"></use>
                </g>
            </g>
            <g id="编组" fill="#2061FF">
                <polygon id="路径" opacity="0.2" points="4.23076923 16.2857143 11 19.7142857 17.7692308 16.2857143 17.7692308 7.71428571 11 4.28571429 4.23076923 7.71428571"></polygon>
                <path d="M11.3384615,24 L10.6615385,24 L0.507692308,19.0285714 L0,18.1714286 L0,5.82857143 L0.507692308,4.97142857 L10.6615385,0 L11.3384615,0 L21.4923077,4.97142857 L22,5.82857143 L22,18.1714286 L21.4923077,19.0285714 L11.3384615,24 Z M11.8461538,11.3142857 L11.8461538,21.7714286 L20.3076923,17.6571429 L20.3076923,7.2 L11.8461538,11.3142857 Z M1.69230769,17.6571429 L10.1538462,21.7714286 L10.1538462,11.3142857 L1.69230769,7.2 L1.69230769,17.6571429 L1.69230769,17.6571429 Z M2.87692308,5.82857143 L11,9.77142857 L19.1230769,5.82857143 L11,1.88571429 L2.87692308,5.82857143 Z" id="形状"></path>
            </g>
        </g>
    </g>
</svg>