<?xml version="1.0" encoding="UTF-8"?>
<svg width="16px" height="16px" viewBox="0 0 16 16" version="1.1" xmlns="http://www.w3.org/2000/svg" xmlns:xlink="http://www.w3.org/1999/xlink">
    <title>编组</title>
    <g id="2023年02月" stroke="none" stroke-width="1" fill="none" fill-rule="evenodd">
        <g id="1-4.业务方-租户-内网/需求管理/需求确认" transform="translate(-1184.000000, -26.000000)">
            <g id="编组" transform="translate(1184.000000, 26.000000)">
                <polygon id="路径" points="0 0 16 0 16 16 0 16"></polygon>
                <path d="M13.3333333,11.3333333 L14.6666667,11.3333333 L14.6666667,12.6666667 L1.33333333,12.6666667 L1.33333333,11.3333333 L2.66666667,11.3333333 L2.66666667,6.66666667 C2.66666667,3.721148 5.05448133,1.33333333 8,1.33333333 C10.9455187,1.33333333 13.3333333,3.721148 13.3333333,6.66666667 L13.3333333,11.3333333 Z M12,11.3333333 L12,6.66666667 C12,4.45752767 10.209139,2.66666667 8,2.66666667 C5.790861,2.66666667 4,4.45752767 4,6.66666667 L4,11.3333333 L12,11.3333333 Z M6,14 L10,14 L10,15.3333333 L6,15.3333333 L6,14 Z" id="形状" fill="#4A4C60" fill-rule="nonzero"></path>
            </g>
        </g>
    </g>
</svg>