<?xml version="1.0" encoding="UTF-8"?>
<svg width="16px" height="16px" viewBox="0 0 16 16" version="1.1" xmlns="http://www.w3.org/2000/svg" xmlns:xlink="http://www.w3.org/1999/xlink">
    <title>编组 6</title>
    <g id="2023年02月" stroke="none" stroke-width="1" fill="none" fill-rule="evenodd">
        <g id="1-3.搜索/联想触发" transform="translate(-269.000000, -228.000000)">
            <g id="编组-7备份-5" transform="translate(209.000000, 226.000000)">
                <g id="编组" transform="translate(60.000000, 2.000000)">
                    <polygon id="路径" points="0 0 16 0 16 16 0 16"></polygon>
                    <path d="M10,2.66666667 L3.33333333,2.66666667 L3.33333333,13.3333333 L12.6666667,13.3333333 L12.6666667,5.33333333 L10,5.33333333 L10,2.66666667 Z M2,1.99466667 C2,1.62933333 2.298,1.33333333 2.666,1.33333333 L10.6666667,1.33333333 L14.0000165,4.66666667 L14.0000165,13.9953333 C14.001242,14.1721456 13.9321925,14.3422091 13.8080425,14.4681094 C13.6838925,14.5940098 13.5148124,14.6654333 13.338,14.6666667 L2.662,14.6666667 C2.2977037,14.6641281 2.0029056,14.3696269 2,14.0053333 L2,1.99466667 L2,1.99466667 Z M9.01933333,9.63066667 C7.86277768,10.3064312 6.38444693,10.0198708 5.56415082,8.9609124 C4.7438547,7.90195399 4.83592246,6.398923 5.77933333,5.448 C6.72890271,4.49860605 8.23627029,4.4033422 9.29780828,5.22563653 C10.3593463,6.04793086 10.643896,7.53125944 9.962,8.688 L11.4353333,10.1613333 L10.4926667,11.1046667 L9.01933333,9.63133333 L9.01933333,9.63066667 Z M8.60733333,8.276 C8.95394211,7.94123404 9.09295013,7.44549614 8.97092954,6.97932357 C8.84890895,6.51315099 8.48484901,6.14909105 8.01867643,6.02707046 C7.55250386,5.90504987 7.05676596,6.04405789 6.722,6.39066667 C6.21670372,6.91383852 6.22393017,7.74544637 6.7382419,8.2597581 C7.25255363,8.77406983 8.08416148,8.78129628 8.60733333,8.276 Z" id="形状" fill="currentColor" fill-rule="nonzero"></path>
                </g>
            </g>
        </g>
    </g>
</svg>