<?xml version="1.0" encoding="UTF-8"?>
<svg width="16px" height="16px" viewBox="0 0 16 16" version="1.1" xmlns="http://www.w3.org/2000/svg" xmlns:xlink="http://www.w3.org/1999/xlink">
    <title>编组 4</title>
    <g id="2023年02月" stroke="none" stroke-width="1" fill="none" fill-rule="evenodd">
        <g id="1-3.搜索/联想触发" transform="translate(-269.000000, -164.000000)">
            <g id="编组-7备份-3" transform="translate(209.000000, 162.000000)">
                <g id="编组" transform="translate(60.000000, 2.000000)">
                    <polygon id="路径" points="0 0 16 0 16 16 0 16"></polygon>
                    <path d="M5.33333333,2.66666667 L14,2.66666667 L14,4 L5.33333333,4 L5.33333333,2.66666667 Z M3.33333333,2 L3.33333333,4 L4,4 L4,4.66666667 L2,4.66666667 L2,4 L2.66666667,4 L2.66666667,2.66666667 L2,2.66666667 L2,2 L3.33333333,2 Z M2,9.33333333 L2,7.66666667 L3.33333333,7.66666667 L3.33333333,7.33333333 L2,7.33333333 L2,6.66666667 L4,6.66666667 L4,8.33333333 L2.66666667,8.33333333 L2.66666667,8.66666667 L4,8.66666667 L4,9.33333333 L2,9.33333333 Z M3.33333333,13 L2,13 L2,12.3333333 L3.33333333,12.3333333 L3.33333333,12 L2,12 L2,11.3333333 L4,11.3333333 L4,14 L2,14 L2,13.3333333 L3.33333333,13.3333333 L3.33333333,13 Z M5.33333333,7.33333333 L14,7.33333333 L14,8.66666667 L5.33333333,8.66666667 L5.33333333,7.33333333 Z M5.33333333,12 L14,12 L14,13.3333333 L5.33333333,13.3333333 L5.33333333,12 Z" id="形状" fill="#343D4E" fill-rule="nonzero"></path>
                </g>
            </g>
        </g>
    </g>
</svg>