<?xml version="1.0" encoding="UTF-8"?>
<svg width="12px" height="13px" viewBox="0 0 12 13" version="1.1" xmlns="http://www.w3.org/2000/svg" xmlns:xlink="http://www.w3.org/1999/xlink">
    <title>图标</title>
    <g id="2023年02月" stroke="none" stroke-width="1" fill="none" fill-rule="evenodd">
        <g id="图标" transform="translate(-2.000000, -2.000000)">
            <rect id="矩形" fill="#000000" fill-rule="nonzero" opacity="0" x="0" y="0" width="16" height="16"></rect>
            <path d="M14,2.5 L14,3.33333333 L10,8.33333333 L10,12.690983 C10,12.880369 9.89299881,13.0535006 9.7236068,13.1381966 L6.7236068,14.6381966 C6.47661755,14.7616912 6.17628103,14.6615791 6.0527864,14.4145898 C6.01807255,14.3451621 6,14.2686056 6,14.190983 L6,8.33333333 L2,3.33333333 L2,2.5 C2,2.22385763 2.22385763,2 2.5,2 L13.5,2 C13.7761424,2 14,2.22385763 14,2.5 Z M3.5,3.33333333 L7.33333333,7.92933333 L7.33333333,12.8333333 L8.66666667,12.1333333 L8.66666667,7.92933333 L12.4,3.33333333 L3.5,3.33333333 Z" id="形状" fill="currentColor"></path>
        </g>
    </g>
</svg>