<?xml version="1.0" encoding="UTF-8"?>
<svg width="16px" height="16px" viewBox="0 0 16 16" version="1.1" xmlns="http://www.w3.org/2000/svg" xmlns:xlink="http://www.w3.org/1999/xlink">
    <title>编组 3</title>
    <g id="2023年02月" stroke="none" stroke-width="1" fill="none" fill-rule="evenodd">
        <g id="1-3.搜索/联想触发" transform="translate(-269.000000, -132.000000)">
            <g id="编组-7备份-2" transform="translate(209.000000, 130.000000)">
                <g id="编组" transform="translate(60.000000, 2.000000)">
                    <polygon id="路径" points="0 0 16 0 16 16 0 16"></polygon>
                    <path d="M1.33333333,2.662 C1.33587188,2.2977037 1.63037311,2.0029056 1.99466667,2 L14.0053333,2 C14.3706667,2 14.6666667,2.29666667 14.6666667,2.662 L14.6666667,13.338 C14.6641281,13.7022963 14.3696269,13.9970944 14.0053333,14 L1.99466667,14 C1.62931454,13.9996321 1.33333333,13.7033523 1.33333333,13.338 L1.33333333,2.662 L1.33333333,2.662 Z M2.66666667,3.33333333 L2.66666667,12.6666667 L13.3333333,12.6666667 L13.3333333,3.33333333 L2.66666667,3.33333333 Z M4,4.66666667 L8,4.66666667 L8,8.66666667 L4,8.66666667 L4,4.66666667 Z M5.33333333,6 L5.33333333,7.33333333 L6.66666667,7.33333333 L6.66666667,6 L5.33333333,6 Z M4,10 L12,10 L12,11.3333333 L4,11.3333333 L4,10 Z M9.33333333,4.66666667 L12,4.66666667 L12,6 L9.33333333,6 L9.33333333,4.66666667 Z M9.33333333,7.33333333 L12,7.33333333 L12,8.66666667 L9.33333333,8.66666667 L9.33333333,7.33333333 Z" id="形状" fill="#343D4E" fill-rule="nonzero"></path>
                </g>
            </g>
        </g>
    </g>
</svg>