<?xml version="1.0" encoding="UTF-8"?>
<svg width="14px" height="14px" viewBox="0 0 14 14" version="1.1" xmlns="http://www.w3.org/2000/svg" xmlns:xlink="http://www.w3.org/1999/xlink">
    <title>denglu</title>
    <g id="洪荒-登录" stroke="none" stroke-width="1" fill="none" fill-rule="evenodd">
        <g id="登录2备份" transform="translate(-897.000000, -281.000000)" fill="currentColor">
            <g id="编组-12" transform="translate(863.903427, 200.000000)">
                <g id="编组-7" transform="translate(24.096573, 72.000000)">
                    <path d="M22.4899931,22.3896677 L22.4899931,22.3896678 C22.363992,20.5803275 21.4712912,18.9094203 20.0343036,17.7932258 L19.9475989,17.7340483 L19.9475989,17.7340483 C19.8661294,17.6842062 19.7723667,17.6578057 19.6767236,17.6577791 L19.6767237,17.6577791 C19.4361011,17.6120588 19.2037811,17.7690452 19.1578224,18.0084181 C19.1532129,18.0324265 19.1506165,18.0567743 19.1500602,18.0812105 L19.1500602,18.0812093 C19.1508944,18.2357325 19.2213803,18.3817297 19.342096,18.4789729 L19.4187632,18.5331577 L19.4187634,18.5331578 C20.6546074,19.444075 21.3995321,20.8707156 21.4380504,22.4003564 L21.4380504,22.4623825 L21.4380504,22.4623872 C21.4368511,22.7513539 21.6713557,22.9865753 21.9618303,22.9877729 C22.2425769,22.9889215 22.4747383,22.7705161 22.4892543,22.4915992 L22.5,22.4915992 L22.4899931,22.3896677 Z M20.7960183,13.6330341 L20.7960183,13.6330411 C20.7165804,10.9964714 18.5036546,8.92316021 15.8533259,9.00218609 C13.3146111,9.07788338 11.2744023,11.1075058 11.1983047,13.6330411 L11.1983046,13.6341359 C11.1983044,15.0314895 11.8278899,16.3552755 12.913925,17.241468 L12.9139247,17.2414682 C10.9524306,18.2809326 9.66533041,20.2500108 9.50593043,22.4552309 L9.50018809,22.5464782 L9.50018809,22.5464782 C9.4999373,22.5483627 9.4999373,22.5502909 9.50018809,22.5521754 L9.50018809,22.5735706 L9.5001881,22.5735707 C9.51000605,22.8186504 9.71767808,23.0094075 9.96403525,22.9996411 C10.1966277,22.9904199 10.3830598,22.8049557 10.3923292,22.5735707 L10.3923292,22.5600168 L10.3980561,22.5600168 L10.4052148,22.4687848 L10.4052148,22.468784 C10.5553312,20.4042483 11.8661432,18.6017079 13.7902705,17.8138843 L13.79027,17.813884 C14.482105,18.1377278 15.2325288,18.319325 15.996591,18.3477988 L15.9965911,18.3477988 C16.7159909,18.3474145 17.426129,18.1863946 18.0746409,17.8766147 L18.5604767,17.5957359 L18.9581761,17.3362676 L18.9581763,17.3362674 C20.1149069,16.4524411 20.7930311,15.0839993 20.7933082,13.6330322 L20.7960183,13.6330341 Z M15.9950214,17.3983497 L15.9950215,17.3983497 C13.8917701,17.4093667 12.1764269,15.7246162 12.1606623,13.6323143 L12.1606623,13.6323172 C12.2185309,11.5260479 13.9818155,9.86524873 16.0990764,9.92281816 C18.1349746,9.9781741 19.7722805,11.6069882 19.8279336,13.6323019 L19.8279336,13.6322871 C19.8117761,15.7246963 18.0962562,17.4093257 15.9928971,17.3983497 L15.9950214,17.3983497 Z" id="denglu"></path>
                </g>
            </g>
        </g>
    </g>
</svg>