<?xml version="1.0" encoding="UTF-8"?>
<svg width="14px" height="14px" viewBox="0 0 14 14" version="1.1" xmlns="http://www.w3.org/2000/svg" xmlns:xlink="http://www.w3.org/1999/xlink">
    <title>mima</title>
    <g id="洪荒-登录" stroke="none" stroke-width="1" fill="none" fill-rule="evenodd">
        <g id="登录2备份" transform="translate(-897.000000, -337.000000)" fill="#8C93A1">
            <g id="编组-12" transform="translate(863.903427, 200.000000)">
                <g id="编组-8" transform="translate(24.096573, 128.000000)">
                    <path d="M21.6013233,23 L10.4245916,23 C9.9079265,23 9.5,22.617485 9.5,22.1329718 L9.5,14.6866969 C9.5,14.2021838 9.9079265,13.8196688 10.4245916,13.8196688 L11.8114947,13.8196688 L11.8114947,12.9526406 C11.8114947,10.4025404 13.3071677,9 15.9993573,9 C18.6915468,9 20.1872355,10.4025551 20.1872355,12.9526406 L20.1872355,13.8196688 L21.574123,13.8196688 C22.0908037,13.8196688 22.4987146,14.2021838 22.4987146,14.6866969 L22.4987146,22.1329718 C22.5259149,22.617485 22.1180041,23 21.6013233,23 Z M19.2626439,12.9271337 C19.2626439,10.8615614 18.2020664,9.86704287 15.9993573,9.86704287 C13.7966482,9.86704287 12.736102,10.8870683 12.736102,12.9271337 L12.736102,13.7941619 L19.2626439,13.7941619 L19.2626439,12.9271337 Z M21.6013076,15.120211 C21.6013076,14.8652157 21.4109524,14.6866969 21.1390275,14.6866969 L10.8868718,14.6866969 C10.6149469,14.6866969 10.4245916,14.8652157 10.4245916,15.120211 L10.4245916,21.6994577 C10.4245916,21.9544531 10.6149469,22.1329718 10.8868874,22.1329718 L21.1390118,22.1329718 C21.4109367,22.1329718 21.6013076,21.9544531 21.6013076,21.6994577 L21.6013076,15.120211 Z M16.4616688,19.4553666 L16.4616688,21.0364258 C16.4616688,21.1639308 16.3800991,21.2659289 16.2169285,21.2659289 L15.7546327,21.2659289 C15.6186624,21.2659289 15.5098925,21.1894377 15.5098925,21.0364258 L15.5098925,19.4553666 C14.4493306,19.2258635 14.1229894,18.6138453 14.1229894,17.7468171 C14.1229894,16.7777761 14.9660114,15.9872539 15.999373,15.9872539 C17.0327345,15.9872539 17.8757565,16.7777615 17.8757565,17.7468171 C17.8757565,18.6138453 17.549431,19.2258635 16.4616844,19.4553666 L16.4616688,19.4553666 Z M15.999373,16.8797743 C15.4826922,16.8797743 15.0747813,17.2622893 15.0747813,17.7468025 C15.0747813,18.2313156 15.4826922,18.6138306 15.999373,18.6138306 C16.5160537,18.6138306 16.9239646,18.2313303 16.9239646,17.7468025 C16.9239646,17.2622746 16.5160694,16.8797743 15.999373,16.8797743 Z" id="mima"></path>
                </g>
            </g>
        </g>
    </g>
</svg>