<?xml version="1.0" encoding="UTF-8"?>
<svg width="16px" height="16px" viewBox="0 0 16 16" version="1.1" xmlns="http://www.w3.org/2000/svg" xmlns:xlink="http://www.w3.org/1999/xlink">
    <title>编组</title>
    <g id="2023年02月" stroke="none" stroke-width="1" fill="none" fill-rule="evenodd">
        <g id="1-3.搜索/联想触发" transform="translate(-269.000000, -68.000000)">
            <g id="编组-7" transform="translate(209.000000, 66.000000)">
                <g id="编组" transform="translate(60.000000, 2.000000)">
                    <polygon id="路径" points="0 0 16 0 16 16 0 16"></polygon>
                    <path d="M4.66666667,2.66666667 L4.66666667,13.3333333 L11.3333333,13.3333333 L11.3333333,2.66666667 L4.66666667,2.66666667 Z M4,1.33333333 L12,1.33333333 C12.3681898,1.33333333 12.6666667,1.63181017 12.6666667,2 L12.6666667,14 C12.6666667,14.3681898 12.3681898,14.6666667 12,14.6666667 L4,14.6666667 C3.63181017,14.6666667 3.33333333,14.3681898 3.33333333,14 L3.33333333,2 C3.33333333,1.63181017 3.63181017,1.33333333 4,1.33333333 Z M8,11.3333333 C8.36818983,11.3333333 8.66666667,11.6318102 8.66666667,12 C8.66666667,12.3681898 8.36818983,12.6666667 8,12.6666667 C7.63181017,12.6666667 7.33333333,12.3681898 7.33333333,12 C7.33333333,11.6318102 7.63181017,11.3333333 8,11.3333333 Z" id="形状" fill="#343D40"></path>
                </g>
            </g>
        </g>
    </g>
</svg>