<?xml version="1.0" encoding="UTF-8"?>
<svg width="16px" height="16px" viewBox="0 0 16 16" version="1.1" xmlns="http://www.w3.org/2000/svg" xmlns:xlink="http://www.w3.org/1999/xlink">
    <title>编组 2</title>
    <g id="2023年02月" stroke="none" stroke-width="1" fill="none" fill-rule="evenodd">
        <g id="1-3.搜索/联想触发" transform="translate(-269.000000, -100.000000)">
            <g id="编组-7备份" transform="translate(209.000000, 98.000000)">
                <g id="编组" transform="translate(60.000000, 2.000000)">
                    <polygon id="路径" points="0 0 16 0 16 16 0 16"></polygon>
                    <path d="M11.69,8.34266667 L11.226,7.14533333 C11.226,7.13133333 11.2326667,6.89533333 11.2326667,6.77333333 C11.232,4.72533333 10.2973333,2.66666667 8,2.66666667 C5.70266667,2.66666667 4.768,4.72533333 4.768,6.77333333 C4.768,6.89533333 4.774,7.13133333 4.77466667,7.14533333 L4.31066667,8.34266667 C4.184,8.686 4.05733333,9.04266667 3.966,9.34933333 C3.528,10.8086667 3.67,11.4126667 3.778,11.426 C4.01,11.4546667 4.68066667,10.3273333 4.68066667,10.3273333 C4.68066667,10.9806667 5.006,11.8326667 5.70866667,12.4473333 C5.446,12.532 5.12333333,12.6606667 4.91666667,12.8186667 C4.73,12.9613333 4.75333333,13.106 4.78733333,13.1653333 C4.934,13.422 7.314,13.3286667 8.00066667,13.2486667 C8.68733333,13.3286667 11.0666667,13.422 11.214,13.1646667 C11.2473333,13.106 11.2706667,12.9613333 11.0846667,12.8186667 C10.8773333,12.6606667 10.5546667,12.532 10.2913333,12.448 C10.9946667,11.8326667 11.3193333,10.98 11.3193333,10.3273333 C11.3193333,10.3273333 11.9906667,11.4546667 12.2226667,11.426 C12.3306667,11.4126667 12.4746667,10.8073333 12.034,9.34866667 C11.9406667,9.04 11.8173333,8.686 11.69,8.34266667 L11.69,8.34266667 Z M12.3706667,13.8273333 C12.122,14.262 11.8153333,14.422 11.412,14.532 C11.252,14.5753333 11.08,14.604 10.8826667,14.624 C10.5893333,14.654 10.2253333,14.6672738 9.80733333,14.6666667 C9.20430958,14.6654888 8.60158536,14.6396896 8.00066667,14.5893333 C7.53933333,14.6326667 6.81066667,14.6653333 6.194,14.6666667 C5.83484488,14.6704904 5.47572468,14.6562502 5.118,14.624 C4.93956393,14.6078004 4.76275207,14.5770311 4.58933333,14.532 C4.186,14.4226667 3.87933333,14.262 3.62933333,13.826 C3.43853461,13.4923592 3.38158307,13.0987025 3.47,12.7246667 C3.07533333,12.6366667 2.80266667,12.4026667 2.61733333,12.1173333 C2.52380831,11.9715805 2.45425886,11.8117743 2.41133333,11.644 C2.35158869,11.4029799 2.32556294,11.1548378 2.334,10.9066667 C2.34266667,10.3833333 2.45866667,9.732 2.68866667,8.96533333 C2.782,8.65466667 2.90666667,8.29333333 3.06733333,7.862 L3.436,6.90866667 C3.43526006,6.86355895 3.43481561,6.81844687 3.43466667,6.77333333 C3.43466667,3.73666667 5.05866667,1.33333333 8,1.33333333 C10.942,1.33333333 12.5653333,3.73666667 12.5653333,6.77333333 L12.5646667,6.90866667 L12.9333333,7.862 L12.94,7.87933333 C13.09,8.28333333 13.2153333,8.648 13.3106667,8.96333333 C13.5426667,9.73 13.6586667,10.3826667 13.6673333,10.9073333 C13.672,11.1786667 13.6473333,11.4246667 13.5886667,11.646 C13.5446667,11.81 13.4813333,11.966 13.382,12.118 C13.198,12.4026667 12.926,12.6353333 12.5306667,12.7246667 C12.6173333,13.094 12.5673333,13.4846667 12.3706667,13.8273333 L12.3706667,13.8273333 Z" id="形状" fill="#343D4E" fill-rule="nonzero"></path>
                </g>
            </g>
        </g>
    </g>
</svg>