<?xml version="1.0" encoding="UTF-8"?>
<svg width="16px" height="16px" viewBox="0 0 16 16" version="1.1" xmlns="http://www.w3.org/2000/svg" xmlns:xlink="http://www.w3.org/1999/xlink">
    <title>编组 5</title>
    <g id="2023年02月" stroke="none" stroke-width="1" fill="none" fill-rule="evenodd">
        <g id="1-3.搜索/联想触发" transform="translate(-269.000000, -196.000000)">
            <g id="编组-7备份-4" transform="translate(209.000000, 194.000000)">
                <g id="编组" transform="translate(60.000000, 2.000000)">
                    <polygon id="路径" points="0 0 16 0 16 16 0 16"></polygon>
                    <path d="M13.3333333,14.6666667 L2.66666667,14.6666667 C2.29847683,14.6666667 2,14.3681898 2,14 L2,2 C2,1.63181017 2.29847683,1.33333333 2.66666667,1.33333333 L13.3333333,1.33333333 C13.7015232,1.33333333 14,1.63181017 14,2 L14,14 C14,14.3681898 13.7015232,14.6666667 13.3333333,14.6666667 Z M12.6666667,13.3333333 L12.6666667,2.66666667 L3.33333333,2.66666667 L3.33333333,13.3333333 L12.6666667,13.3333333 Z M5.33333333,4.66666667 L10.6666667,4.66666667 L10.6666667,6 L5.33333333,6 L5.33333333,4.66666667 Z M5.33333333,7.33333333 L10.6666667,7.33333333 L10.6666667,8.66666667 L5.33333333,8.66666667 L5.33333333,7.33333333 Z M5.33333333,10 L8.66666667,10 L8.66666667,11.3333333 L5.33333333,11.3333333 L5.33333333,10 Z" id="形状" fill="#343D4E" fill-rule="nonzero"></path>
                </g>
            </g>
        </g>
    </g>
</svg>